<svg width="251" height="64" viewBox="0 0 251 64" fill="none" xmlns="http://www.w3.org/2000/svg">
<path d="M77.6939 63.056C73.8806 63.056 70.6832 62.6747 68.1019 61.912C65.5206 61.0907 63.3792 60.0054 61.6779 58.656C60.0352 57.248 58.8032 55.664 57.9819 53.904C57.2192 52.144 56.7499 50.296 56.5739 48.36H68.1899C68.4832 49.8854 69.3926 51.1467 70.9179 52.144C72.4432 53.0827 74.7019 53.552 77.6939 53.552C81.0966 53.552 83.5312 53.0827 84.9979 52.144C86.4646 51.2054 87.1979 50.0027 87.1979 48.536C87.1979 47.48 86.8752 46.6294 86.2299 45.984C85.5846 45.28 84.4406 44.6934 82.7979 44.224C81.1552 43.696 78.8379 43.168 75.8459 42.64C73.2646 42.288 70.8886 41.8187 68.7179 41.232C66.6059 40.5867 64.7286 39.7067 63.0859 38.592C61.4432 37.4774 60.1526 36.0987 59.2139 34.456C58.3339 32.7547 57.8939 30.7014 57.8939 28.296C57.8939 25.7147 58.6566 23.368 60.1819 21.256C61.7659 19.144 64.0246 17.472 66.9579 16.24C69.9499 14.9494 73.5286 14.304 77.6939 14.304C82.2112 14.304 85.8192 15.008 88.5179 16.416C91.2166 17.824 93.2406 19.6427 94.5899 21.872C95.9392 24.1014 96.7606 26.4774 97.0539 29H85.4379C84.9686 27.2987 84.0592 26.008 82.7099 25.128C81.3606 24.248 79.6886 23.808 77.6939 23.808C74.7606 23.808 72.6486 24.2774 71.3579 25.216C70.1259 26.096 69.5099 27.2107 69.5099 28.56C69.5099 29.968 70.1846 31.0534 71.5339 31.816C72.9419 32.5787 75.7872 33.2534 80.0699 33.84C82.7099 34.192 85.1446 34.72 87.3739 35.424C89.6619 36.0694 91.6566 36.9494 93.3579 38.064C95.0592 39.1787 96.3792 40.5867 97.3179 42.288C98.3152 43.9307 98.8139 45.9547 98.8139 48.36C98.8139 51.2347 98.0219 53.7867 96.4379 56.016C94.9126 58.1867 92.5659 59.9174 89.3979 61.208C86.2886 62.44 82.3872 63.056 77.6939 63.056Z" fill="#436AF5"/>
<path d="M119.831 63.056C116.017 63.056 112.82 62.6747 110.239 61.912C107.657 61.0907 105.516 60.0054 103.815 58.656C102.172 57.248 100.94 55.664 100.119 53.904C99.3561 52.144 98.8868 50.296 98.7108 48.36H110.327C110.62 49.8854 111.529 51.1467 113.055 52.144C114.58 53.0827 116.839 53.552 119.831 53.552C123.233 53.552 125.668 53.0827 127.135 52.144C128.601 51.2054 129.335 50.0027 129.335 48.536C129.335 47.48 129.012 46.6294 128.367 45.984C127.721 45.28 126.577 44.6934 124.935 44.224C123.292 43.696 120.975 43.168 117.983 42.64C115.401 42.288 113.025 41.8187 110.855 41.232C108.743 40.5867 106.865 39.7067 105.223 38.592C103.58 37.4774 102.289 36.0987 101.351 34.456C100.471 32.7547 100.031 30.7014 100.031 28.296C100.031 25.7147 100.793 23.368 102.319 21.256C103.903 19.144 106.161 17.472 109.095 16.24C112.087 14.9494 115.665 14.304 119.831 14.304C124.348 14.304 127.956 15.008 130.655 16.416C133.353 17.824 135.377 19.6427 136.727 21.872C138.076 24.1014 138.897 26.4774 139.191 29H127.575C127.105 27.2987 126.196 26.008 124.847 25.128C123.497 24.248 121.825 23.808 119.831 23.808C116.897 23.808 114.785 24.2774 113.495 25.216C112.263 26.096 111.647 27.2107 111.647 28.56C111.647 29.968 112.321 31.0534 113.671 31.816C115.079 32.5787 117.924 33.2534 122.207 33.84C124.847 34.192 127.281 34.72 129.511 35.424C131.799 36.0694 133.793 36.9494 135.495 38.064C137.196 39.1787 138.516 40.5867 139.455 42.288C140.452 43.9307 140.951 45.9547 140.951 48.36C140.951 51.2347 140.159 53.7867 138.575 56.016C137.049 58.1867 134.703 59.9174 131.535 61.208C128.425 62.44 124.524 63.056 119.831 63.056Z" fill="#436AF5"/>
<path d="M157.04 63.056C153.696 63.056 150.85 62.44 148.504 61.208C146.157 59.9174 144.368 58.1574 143.136 55.928C141.904 53.6987 141.288 51.176 141.288 48.36C141.288 43.6667 142.666 40.1467 145.424 37.8C148.24 35.4534 152.434 34.28 158.008 34.28H171.912V32.08C171.912 29.0294 171.208 26.888 169.8 25.656C168.45 24.424 166.28 23.808 163.288 23.808C160.648 23.808 158.741 24.2774 157.568 25.216C156.394 26.096 155.72 27.2107 155.544 28.56H143.928C144.104 25.8614 144.954 23.456 146.48 21.344C148.064 19.1734 150.293 17.472 153.168 16.24C156.101 14.9494 159.621 14.304 163.728 14.304C167.717 14.304 171.178 14.8907 174.112 16.064C177.104 17.2374 179.421 19.144 181.064 21.784C182.706 24.3654 183.528 27.856 183.528 32.256V50.12C183.528 52.584 183.557 54.7547 183.616 56.632C183.733 58.4507 183.909 60.24 184.144 62H173.32C173.085 60.7094 172.938 59.7414 172.88 59.096C172.88 58.392 172.88 57.3654 172.88 56.016C171.648 57.8934 169.712 59.536 167.072 60.944C164.432 62.352 161.088 63.056 157.04 63.056ZM160.648 54.08C162.525 54.08 164.314 53.7574 166.016 53.112C167.776 52.408 169.184 51.352 170.24 49.944C171.354 48.4774 171.912 46.6294 171.912 44.4V42.2H160.208C157.978 42.2 156.218 42.728 154.928 43.784C153.696 44.7814 153.08 46.16 153.08 47.92C153.08 49.7974 153.725 51.2934 155.016 52.408C156.306 53.5227 158.184 54.08 160.648 54.08Z" fill="#436AF5"/>
<path d="M187.593 62V15.36H198.153V22.224C199.326 20.112 201.145 18.264 203.609 16.68C206.073 15.096 209.446 14.304 213.729 14.304C219.42 14.304 223.644 15.8294 226.401 18.88C229.217 21.9307 230.625 26.3307 230.625 32.08V62H219.009V34.72C219.009 31.2587 218.276 28.648 216.809 26.888C215.401 25.0694 212.966 24.16 209.505 24.16C207.041 24.16 205.046 24.6587 203.521 25.656C201.996 26.6534 200.881 27.944 200.177 29.528C199.473 31.112 199.121 32.8427 199.121 34.72V62H187.593Z" fill="#436AF5"/>
<path d="M242.986 63.056C241.637 63.056 240.375 62.704 239.202 62C238.087 61.3547 237.178 60.4454 236.474 59.272C235.829 58.0987 235.506 56.8667 235.506 55.576C235.506 53.4054 236.239 51.616 237.706 50.208C239.173 48.8 240.933 48.096 242.986 48.096C245.039 48.096 246.799 48.8 248.266 50.208C249.733 51.616 250.466 53.4054 250.466 55.576C250.466 56.8667 250.114 58.0987 249.41 59.272C248.765 60.4454 247.885 61.3547 246.77 62C245.655 62.704 244.394 63.056 242.986 63.056Z" fill="#436AF5"/>
<path fill-rule="evenodd" clip-rule="evenodd" d="M23.1717 0.400024L0.291718 62H13.1397L17.8037 49.416H40.5957L45.3477 62H59.2517L36.2837 0.400024H23.1717ZM29.2437 17.12L36.6357 38.504H21.8517L29.2437 17.12Z" fill="#436AF5"/>
</svg>
